<svg aria-hidden="true" style="width:0;height:0;position:absolute;overflow:hidden" xmlns="http://www.w3.org/2000/svg"><defs><symbol id="icon-star" viewBox="0 0 34 32"><path fill="#ffe550" style="fill:var(--color1,#ffe550)" d="M15.421 1.037c.584-1.383 2.575-1.383 3.159 0l3.449 8.164a1.71 1.71 0 0 0 1.443 1.032l8.952.707c1.517.12 2.132 1.983.976 2.958l-6.821 5.752a1.67 1.67 0 0 0-.551 1.67l2.084 8.6c.353 1.457-1.257 2.609-2.556 1.828l-7.664-4.609a1.734 1.734 0 0 0-1.783 0l-7.664 4.609c-1.299.781-2.909-.371-2.556-1.828l2.084-8.6a1.67 1.67 0 0 0-.551-1.67L.601 13.898c-1.156-.975-.541-2.838.976-2.958l8.952-.707a1.71 1.71 0 0 0 1.443-1.032l3.449-8.164z"/></symbol><symbol id="icon-close" viewBox="0 0 12 12"><path d="m7.178 6.046 4.004-4A.823.823 0 0 0 10.02.885l-4.003 3.96L1.987.818a.824.824 0 0 0-1.161 1.16l4.02 4.067L.909 9.931a.822.822 0 0 0 .895 1.367.825.825 0 0 0 .267-.206L6 7.166l3.905 3.901a.825.825 0 0 0 1.161-1.16L7.178 6.046Z" fill="#2C2C2C"/></symbol></defs></svg>